<svg width="126" height="28" viewBox="0 0 126 28" fill="none" xmlns="http://www.w3.org/2000/svg">
<path d="M21.464 14.76C19.736 18.552 18.872 22.644 18.872 27.036C18.224 27.492 17.42 27.72 16.46 27.72C15.524 27.72 14.756 27.492 14.156 27.036C13.556 26.604 13.196 26.16 13.076 25.704C12.476 26.328 11.684 26.82 10.7 27.18C9.74 27.54 8.744 27.72 7.712 27.72C6.68 27.72 5.708 27.552 4.796 27.216C3.908 26.88 3.116 26.34 2.42 25.596C0.884 23.964 0.116 21.6 0.116 18.504C0.116 13.704 1.4 9.864 3.968 6.984C6.608 4.008 10.268 2.52 14.948 2.52C18.188 2.52 20.384 3.36 21.536 5.04C21.896 5.568 22.076 6.156 22.076 6.804C22.076 7.428 21.932 8.016 21.644 8.568C21.38 9.096 21.032 9.576 20.6 10.008C19.568 10.968 18.416 11.448 17.144 11.448C16.64 11.448 16.148 11.364 15.668 11.196C15.764 10.476 15.812 9.696 15.812 8.856C15.812 8.016 15.776 7.404 15.704 7.02C15.656 6.636 15.56 6.288 15.416 5.976C15.104 5.328 14.6 5.004 13.904 5.004C13.232 5.004 12.512 5.376 11.744 6.12C11 6.84 10.328 7.8 9.728 9C8.408 11.688 7.748 14.652 7.748 17.892C7.748 19.38 8.036 20.652 8.612 21.708C9.236 22.86 10.1 23.436 11.204 23.436C11.588 23.436 11.948 23.34 12.284 23.148C12.644 22.956 12.896 22.788 13.04 22.644L14.192 15.408L21.464 14.76ZM24.785 25.92C24.233 25.296 23.825 24.492 23.561 23.508C23.321 22.524 23.201 21.228 23.201 19.62C23.201 18.012 23.477 16.476 24.029 15.012C24.581 13.548 25.361 12.288 26.369 11.232C28.433 9.024 31.169 7.92 34.577 7.92C35.801 7.92 36.857 8.124 37.745 8.532L43.901 7.92L41.237 21.96C41.165 22.248 41.129 22.656 41.129 23.184C41.129 23.712 41.285 24.144 41.597 24.48C41.933 24.816 42.341 25.008 42.821 25.056C42.581 25.872 42.017 26.52 41.129 27C40.265 27.48 39.341 27.72 38.357 27.72C37.373 27.72 36.545 27.528 35.873 27.144C35.225 26.784 34.805 26.292 34.613 25.668C34.229 26.268 33.629 26.76 32.813 27.144C31.997 27.528 31.037 27.72 29.933 27.72C28.853 27.72 27.869 27.576 26.981 27.288C26.093 27 25.361 26.544 24.785 25.92ZM32.381 11.304C32.117 11.736 31.865 12.324 31.625 13.068C31.385 13.788 31.061 15.132 30.653 17.1C30.269 19.044 30.077 20.712 30.077 22.104C30.077 23.496 30.185 24.396 30.401 24.804C30.617 25.212 30.917 25.416 31.301 25.416C32.069 25.416 32.729 25.056 33.281 24.336C33.857 23.592 34.253 22.572 34.469 21.276L36.377 10.728C35.873 10.296 35.321 10.08 34.721 10.08C34.145 10.08 33.677 10.176 33.317 10.368C32.981 10.56 32.669 10.872 32.381 11.304ZM54.4465 25.02C53.7025 26.82 52.1425 27.72 49.7665 27.72C48.5665 27.72 47.5825 27.3 46.8145 26.46C46.1905 25.764 45.8785 25.02 45.8785 24.228C45.8785 22.428 46.2985 19.56 47.1385 15.624L49.7665 1.8L57.0745 1.08L53.5825 19.296C53.1745 21.072 52.9705 22.272 52.9705 22.896C52.9705 24.264 53.4625 24.972 54.4465 25.02ZM72.0943 20.916C72.6943 21.324 72.9943 21.984 72.9943 22.896C72.9943 23.784 72.7663 24.516 72.3103 25.092C71.8543 25.668 71.2543 26.148 70.5103 26.532C68.9743 27.324 67.3783 27.72 65.7223 27.72C64.0663 27.72 62.7463 27.54 61.7623 27.18C60.8023 26.82 59.9983 26.304 59.3503 25.632C58.0783 24.36 57.4423 22.56 57.4423 20.232C57.4423 16.608 58.4263 13.692 60.3943 11.484C62.5063 9.108 65.3983 7.92 69.0703 7.92C71.3503 7.92 73.0543 8.4 74.1823 9.36C75.0223 10.08 75.4423 11.028 75.4423 12.204C75.4423 16.428 71.7943 18.54 64.4983 18.54C64.4023 19.164 64.3543 19.74 64.3543 20.268C64.3543 21.372 64.5943 22.14 65.0743 22.572C65.5783 22.98 66.2863 23.184 67.1983 23.184C68.1103 23.184 69.0463 22.98 70.0063 22.572C70.9903 22.14 71.6863 21.588 72.0943 20.916ZM64.7503 16.992C66.4543 16.992 67.7983 16.464 68.7823 15.408C69.7663 14.4 70.2583 13.092 70.2583 11.484C70.2583 10.932 70.1503 10.512 69.9343 10.224C69.7423 9.912 69.4423 9.756 69.0343 9.756C68.6263 9.756 68.2423 9.84 67.8823 10.008C67.5463 10.152 67.1983 10.488 66.8383 11.016C65.9503 12.216 65.2543 14.208 64.7503 16.992ZM87.9425 16.884C88.8065 15.348 89.2385 13.8 89.2385 12.24C89.2385 11.208 88.8665 10.692 88.1225 10.692C87.5465 10.692 86.9585 11.184 86.3585 12.168C85.7345 13.152 85.3265 14.28 85.1345 15.552L83.2625 27L75.8105 27.72L79.4825 8.64L85.4225 7.92L84.7745 11.556C85.9505 9.132 87.8585 7.92 90.4985 7.92C91.8905 7.92 92.9585 8.28 93.7025 9C94.4705 9.72 94.8545 10.824 94.8545 12.312C94.8545 13.776 94.3625 14.976 93.3785 15.912C92.4185 16.848 91.1105 17.316 89.4545 17.316C88.7345 17.316 88.2305 17.172 87.9425 16.884ZM104.088 25.02C103.344 26.82 101.784 27.72 99.4079 27.72C98.1839 27.72 97.1879 27.3 96.4199 26.46C95.7719 25.716 95.4479 24.972 95.4479 24.228C95.4479 22.284 95.8919 19.416 96.7799 15.624L98.1119 8.64L105.42 7.92L103.224 19.296C102.816 21.072 102.612 22.272 102.612 22.896C102.612 24.264 103.104 24.972 104.088 25.02ZM98.7599 3.636C98.7599 2.7 99.1439 1.98 99.9119 1.476C100.704 0.971999 101.664 0.719999 102.792 0.719999C103.92 0.719999 104.82 0.971999 105.492 1.476C106.188 1.98 106.536 2.7 106.536 3.636C106.536 4.572 106.152 5.28 105.384 5.76C104.64 6.24 103.704 6.48 102.576 6.48C101.448 6.48 100.524 6.24 99.8039 5.76C99.1079 5.28 98.7599 4.572 98.7599 3.636ZM121.735 20.916C122.335 21.324 122.635 21.984 122.635 22.896C122.635 23.784 122.407 24.516 121.951 25.092C121.495 25.668 120.895 26.148 120.151 26.532C118.615 27.324 117.019 27.72 115.363 27.72C113.707 27.72 112.387 27.54 111.403 27.18C110.443 26.82 109.639 26.304 108.991 25.632C107.719 24.36 107.083 22.56 107.083 20.232C107.083 16.608 108.067 13.692 110.035 11.484C112.147 9.108 115.039 7.92 118.711 7.92C120.991 7.92 122.695 8.4 123.823 9.36C124.663 10.08 125.083 11.028 125.083 12.204C125.083 16.428 121.435 18.54 114.139 18.54C114.043 19.164 113.995 19.74 113.995 20.268C113.995 21.372 114.235 22.14 114.715 22.572C115.219 22.98 115.927 23.184 116.839 23.184C117.751 23.184 118.687 22.98 119.647 22.572C120.631 22.14 121.327 21.588 121.735 20.916ZM114.391 16.992C116.095 16.992 117.439 16.464 118.423 15.408C119.407 14.4 119.899 13.092 119.899 11.484C119.899 10.932 119.791 10.512 119.575 10.224C119.383 9.912 119.083 9.756 118.675 9.756C118.267 9.756 117.883 9.84 117.523 10.008C117.187 10.152 116.839 10.488 116.479 11.016C115.591 12.216 114.895 14.208 114.391 16.992Z" fill="#F5B82E"/>
</svg>
