<svg width="44" height="45" viewBox="0 0 44 45" fill="none" xmlns="http://www.w3.org/2000/svg">
<path d="M32.0833 12.1875H32.1017M12.8333 3.75H31.1667C36.2293 3.75 40.3333 7.94733 40.3333 13.125V31.875C40.3333 37.0527 36.2293 41.25 31.1667 41.25H12.8333C7.77071 41.25 3.66666 37.0527 3.66666 31.875V13.125C3.66666 7.94733 7.77071 3.75 12.8333 3.75ZM29.3333 21.3187C29.5596 22.8792 29.299 24.4729 28.5885 25.8732C27.8781 27.2734 26.7541 28.4089 25.3763 29.1181C23.9985 29.8274 22.4371 30.0742 20.9143 29.8236C19.3914 29.573 17.9846 28.8377 16.8939 27.7222C15.8032 26.6067 15.0842 25.1679 14.8391 23.6104C14.5941 22.0529 14.8354 20.4561 15.5289 19.047C16.2224 17.6379 17.3327 16.4883 18.7018 15.7617C20.0709 15.0351 21.6292 14.7686 23.155 15C24.7113 15.236 26.1522 15.9777 27.2648 17.1156C28.3773 18.2534 29.1025 19.727 29.3333 21.3187Z" stroke="#F5B82E" stroke-width="4" stroke-linecap="round" stroke-linejoin="round"/>
</svg>
