<svg width="41" height="42" viewBox="0 0 41 42" fill="none" xmlns="http://www.w3.org/2000/svg">
<path d="M27.3334 14.2105C30.0518 14.2105 32.659 15.2918 34.5812 17.2165C36.5034 19.1412 37.5834 21.7517 37.5834 24.4737V36.4474H30.75V24.4737C30.75 23.5664 30.39 22.6962 29.7493 22.0546C29.1086 21.4131 28.2395 21.0526 27.3334 21.0526C26.4272 21.0526 25.5582 21.4131 24.9174 22.0546C24.2767 22.6962 23.9167 23.5664 23.9167 24.4737V36.4474H17.0834V24.4737C17.0834 21.7517 18.1633 19.1412 20.0855 17.2165C22.0078 15.2918 24.6149 14.2105 27.3334 14.2105Z" stroke="#F5B82E" stroke-width="4" stroke-linecap="round" stroke-linejoin="round"/>
<path d="M10.25 15.921H3.41669V36.4474H10.25V15.921Z" stroke="#F5B82E" stroke-width="4" stroke-linecap="round" stroke-linejoin="round"/>
<path d="M6.83335 10.7895C8.72033 10.7895 10.25 9.2578 10.25 7.36841C10.25 5.47901 8.72033 3.94736 6.83335 3.94736C4.94638 3.94736 3.41669 5.47901 3.41669 7.36841C3.41669 9.2578 4.94638 10.7895 6.83335 10.7895Z" stroke="#F5B82E" stroke-width="4" stroke-linecap="round" stroke-linejoin="round"/>
</svg>
