<svg width="154" height="40" viewBox="0 0 154 40" fill="none" xmlns="http://www.w3.org/2000/svg">
<path d="M18.75 32.72C15.678 32.72 13.998 30.536 13.71 26.168H7.51798C7.06198 27.272 6.65398 28.304 6.29398 29.264L5.35798 32H0.317984L11.658 8.24H19.398L20.91 25.736C21.15 28.256 21.75 29.888 22.71 30.632C22.014 32.024 20.694 32.72 18.75 32.72ZM8.63398 23.54H13.602L13.17 14.288V13.316L10.614 18.968L8.63398 23.54ZM9.96598 2.696C9.96598 2.024 10.302 1.448 10.974 0.967998L19.794 4.64L19.362 6.404L15.078 6.26C11.67 6.14 9.96598 4.952 9.96598 2.696ZM49.0071 29.552C47.9991 30.56 46.7991 31.34 45.4071 31.892C44.0391 32.444 42.6711 32.72 41.3031 32.72C39.9351 32.72 39.0111 32.6 38.5311 32.36L37.4151 38.48L30.1071 39.2L35.0751 13.64L40.9431 13.028L40.4751 15.512C41.4831 13.808 43.0311 12.956 45.1191 12.956C47.4711 12.956 49.2711 13.712 50.5191 15.224C51.6231 16.592 52.1751 18.32 52.1751 20.408C52.1751 22.496 51.8991 24.284 51.3471 25.772C50.7951 27.26 50.0151 28.52 49.0071 29.552ZM38.9631 29.984C39.4671 30.416 40.0311 30.632 40.6551 30.632C41.2791 30.632 41.7711 30.512 42.1311 30.272C42.4911 30.032 42.8031 29.672 43.0671 29.192C43.7871 27.896 44.4351 25.28 45.0111 21.344C45.1791 20.192 45.2631 19.052 45.2631 17.924C45.2631 16.796 45.1311 16.052 44.8671 15.692C44.6271 15.332 44.2671 15.152 43.7871 15.152C42.3231 15.152 41.3511 16.58 40.8711 19.436L38.9631 29.984ZM65.6124 21.884C66.4764 20.348 66.9084 18.8 66.9084 17.24C66.9084 16.208 66.5364 15.692 65.7924 15.692C65.2164 15.692 64.6284 16.184 64.0284 17.168C63.4044 18.152 62.9964 19.28 62.8044 20.552L60.9324 32L53.4804 32.72L57.1524 13.64L63.0924 12.92L62.4444 16.556C63.6204 14.132 65.5284 12.92 68.1684 12.92C69.5604 12.92 70.6284 13.28 71.3724 14C72.1404 14.72 72.5244 15.824 72.5244 17.312C72.5244 18.776 72.0324 19.976 71.0484 20.912C70.0884 21.848 68.7804 22.316 67.1244 22.316C66.4044 22.316 65.9004 22.172 65.6124 21.884ZM80.9659 32.72C75.6859 32.72 73.0459 30.236 73.0459 25.268C73.0459 21.74 74.0179 18.836 75.9619 16.556C78.0259 14.132 80.8459 12.92 84.4219 12.92C87.0139 12.92 88.9699 13.52 90.2899 14.72C91.6099 15.92 92.2699 17.78 92.2699 20.3C92.2699 24.14 91.2379 27.176 89.1739 29.408C87.1579 31.616 84.4219 32.72 80.9659 32.72ZM81.9019 17.06C81.6139 17.708 81.3499 18.524 81.1099 19.508C80.8939 20.468 80.6419 21.716 80.3539 23.252C80.0659 24.788 79.9219 26.504 79.9219 28.4C79.9219 29.024 80.0179 29.54 80.2099 29.948C80.4259 30.356 80.8099 30.56 81.3619 30.56C81.9139 30.56 82.3579 30.428 82.6939 30.164C83.0539 29.9 83.3659 29.456 83.6299 28.832C84.1099 27.728 84.5419 26.156 84.9259 24.116C85.3099 22.052 85.5139 20.576 85.5379 19.688C85.5859 18.8 85.6099 18.032 85.6099 17.384C85.6099 16.712 85.5139 16.16 85.3219 15.728C85.1299 15.296 84.7579 15.08 84.2059 15.08C83.6779 15.08 83.2339 15.248 82.8739 15.584C82.5139 15.92 82.1899 16.412 81.9019 17.06ZM111.163 29.552C110.155 30.56 108.955 31.34 107.563 31.892C106.195 32.444 104.827 32.72 103.459 32.72C102.091 32.72 101.167 32.6 100.687 32.36L99.5714 38.48L92.2634 39.2L97.2314 13.64L103.099 13.028L102.631 15.512C103.639 13.808 105.187 12.956 107.275 12.956C109.627 12.956 111.427 13.712 112.675 15.224C113.779 16.592 114.331 18.32 114.331 20.408C114.331 22.496 114.055 24.284 113.503 25.772C112.951 27.26 112.171 28.52 111.163 29.552ZM101.119 29.984C101.623 30.416 102.187 30.632 102.811 30.632C103.435 30.632 103.927 30.512 104.287 30.272C104.647 30.032 104.959 29.672 105.223 29.192C105.943 27.896 106.591 25.28 107.167 21.344C107.335 20.192 107.419 19.052 107.419 17.924C107.419 16.796 107.287 16.052 107.023 15.692C106.783 15.332 106.423 15.152 105.943 15.152C104.479 15.152 103.507 16.58 103.027 19.436L101.119 29.984ZM124.349 32.72C119.069 32.72 116.429 30.236 116.429 25.268C116.429 21.74 117.401 18.836 119.345 16.556C121.409 14.132 124.229 12.92 127.805 12.92C130.397 12.92 132.353 13.52 133.673 14.72C134.993 15.92 135.653 17.78 135.653 20.3C135.653 24.14 134.621 27.176 132.557 29.408C130.541 31.616 127.805 32.72 124.349 32.72ZM125.285 17.06C124.997 17.708 124.733 18.524 124.493 19.508C124.277 20.468 124.025 21.716 123.737 23.252C123.449 24.788 123.305 26.504 123.305 28.4C123.305 29.024 123.401 29.54 123.593 29.948C123.809 30.356 124.193 30.56 124.745 30.56C125.297 30.56 125.741 30.428 126.077 30.164C126.437 29.9 126.749 29.456 127.013 28.832C127.493 27.728 127.925 26.156 128.309 24.116C128.693 22.052 128.897 20.576 128.921 19.688C128.969 18.8 128.993 18.032 128.993 17.384C128.993 16.712 128.897 16.16 128.705 15.728C128.513 15.296 128.141 15.08 127.589 15.08C127.061 15.08 126.617 15.248 126.257 15.584C125.897 15.92 125.573 16.412 125.285 17.06ZM148.534 19.364C148.87 18.476 149.038 17.648 149.038 16.88C149.038 15.464 148.462 14.756 147.31 14.756C146.71 14.756 146.158 15.032 145.654 15.584C145.174 16.112 144.934 16.712 144.934 17.384C144.934 17.864 145.126 18.296 145.51 18.68C146.062 19.208 147.046 19.904 148.462 20.768C149.878 21.632 150.85 22.424 151.378 23.144C151.93 23.84 152.206 24.68 152.206 25.664C152.206 26.624 151.966 27.548 151.486 28.436C151.03 29.324 150.382 30.08 149.542 30.704C147.742 32.048 145.402 32.72 142.522 32.72C140.962 32.72 139.582 32.312 138.382 31.496C137.182 30.704 136.582 29.84 136.582 28.904C136.582 27.968 136.918 27.224 137.59 26.672C138.286 26.12 139.138 25.844 140.146 25.844C141.154 25.844 141.97 26.036 142.594 26.42C142.282 27.212 142.126 27.872 142.126 28.4C142.126 29.984 142.798 30.776 144.142 30.776C144.718 30.776 145.198 30.596 145.582 30.236C145.966 29.876 146.158 29.384 146.158 28.76C146.158 27.536 145.126 26.276 143.062 24.98C141.382 23.876 140.35 23.108 139.966 22.676C139.318 21.908 138.994 21.044 138.994 20.084C138.994 19.124 139.222 18.188 139.678 17.276C140.134 16.364 140.782 15.584 141.622 14.936C143.374 13.592 145.774 12.92 148.822 12.92C150.382 12.92 151.618 13.232 152.53 13.856C153.466 14.48 153.934 15.32 153.934 16.376C153.934 17.432 153.61 18.26 152.962 18.86C152.338 19.46 151.45 19.76 150.298 19.76C149.506 19.76 148.918 19.628 148.534 19.364Z" fill="#F5B82E"/>
</svg>
